<?xml version="1.0" encoding="UTF-8" standalone="no"?>
<svg
   xmlns:dc="http://purl.org/dc/elements/1.1/"
   xmlns:cc="http://creativecommons.org/ns#"
   xmlns:rdf="http://www.w3.org/1999/02/22-rdf-syntax-ns#"
   xmlns:svg="http://www.w3.org/2000/svg"
   xmlns="http://www.w3.org/2000/svg"
   xmlns:sodipodi="http://sodipodi.sourceforge.net/DTD/sodipodi-0.dtd"
   xmlns:inkscape="http://www.inkscape.org/namespaces/inkscape"
   viewBox="0 0 84.28 91.49"
   version="1.1"
   id="svg8875"
   sodipodi:docname="bishop_white.svg"
   inkscape:version="0.92.4 (5da689c313, 2019-01-14)">
  <metadata
     id="metadata8881">
    <rdf:RDF>
      <cc:Work
         rdf:about="">
        <dc:format>image/svg+xml</dc:format>
        <dc:type
           rdf:resource="http://purl.org/dc/dcmitype/StillImage" />
      </cc:Work>
    </rdf:RDF>
  </metadata>
  <defs
     id="defs8879" />
  <sodipodi:namedview
     pagecolor="#ffffff"
     bordercolor="#666666"
     borderopacity="1"
     objecttolerance="10"
     gridtolerance="10"
     guidetolerance="10"
     inkscape:pageopacity="0"
     inkscape:pageshadow="2"
     inkscape:window-width="1920"
     inkscape:window-height="1051"
     id="namedview8877"
     showgrid="false"
     inkscape:zoom="10.318068"
     inkscape:cx="38.07412"
     inkscape:cy="54.070508"
     inkscape:window-x="-9"
     inkscape:window-y="-9"
     inkscape:window-maximized="1"
     inkscape:current-layer="svg8875" />
  <rect
     style="opacity:1;fill:#ffffff;fill-opacity:1;stroke:none;stroke-width:0.37795275;stroke-linecap:round;stroke-linejoin:round;stroke-miterlimit:4;stroke-dasharray:none;stroke-opacity:0.97512434;paint-order:stroke fill markers"
     id="rect9426"
     width="9.7886543"
     height="9.1102333"
     x="36.828602"
     y="4.1674466" />
  <rect
     style="opacity:1;fill:#ffffff;fill-opacity:1;stroke:none;stroke-width:0.37795275;stroke-linecap:round;stroke-linejoin:round;stroke-miterlimit:4;stroke-dasharray:none;stroke-opacity:0.97512434;paint-order:stroke fill markers"
     id="rect9428"
     width="34.21183"
     height="16.185202"
     x="24.907764"
     y="51.463123" />
  <ellipse
     style="opacity:1;fill:#ffffff;fill-opacity:1;stroke:none;stroke-width:0.4090679;stroke-linecap:round;stroke-linejoin:round;stroke-miterlimit:4;stroke-dasharray:none;stroke-opacity:0.97512434;paint-order:stroke fill markers"
     id="path9440"
     cx="42.110596"
     cy="37.119354"
     rx="21.661032"
     ry="19.868061" />
  <path
     style="opacity:1;fill:#ffffff;fill-opacity:1;stroke:none;stroke-width:0.38021371;stroke-linecap:round;stroke-linejoin:round;stroke-miterlimit:4;stroke-dasharray:none;stroke-opacity:0.97512434;paint-order:stroke fill markers"
     d="m 6.7842161,75.983216 c 9.2087069,-1.513876 17.9356269,-2.28718 26.4565029,-2.500417 3.290346,-0.08234 4.514704,-4.151699 7.759479,-4.077408 3.338684,0.07644 8.696914,4.300826 12.021457,4.520772 8.141234,0.53861 16.291927,1.473552 24.706072,2.638558 l 1.453761,9.982489 C 67.292159,83.517275 55.400845,89.686425 46.423267,82.66108 44.527134,81.177274 39.280422,81.557507 34.991459,83.323071 26.834654,86.680842 18.1427,84.594217 4.9427861,85.868788 Z"
     id="rect9442"
     inkscape:connector-curvature="0"
     sodipodi:nodetypes="csssccsscc" />
  <g
     id="Warstwa_2"
     data-name="Warstwa 2">
    <g
       id="Warstwa_1-2"
       data-name="Warstwa 1">
      <path
         d="M81.18,76.67c-2.67-2.8-4.53-3.34-11.6-3.34a70.61,70.61,0,0,1-11.47-.8c-3.06-.8-2.93-.93,1.07-3.46,3.07-1.74,4-3.2,3.33-4.8-2.4-6.27-2.13-9.34,1.07-14.14,4.67-6.8,5.47-11.6,2.93-17.6-2.66-6.4-5.2-9.33-12.26-13.86-4.14-2.67-5.2-4-4.27-5.47C53.45,7.6,48.78,0,41.85,0a10.66,10.66,0,0,0-6.67,2.67h0c-2.93,2.93-3.47,6.8-1.33,10.66,1.06,2,.53,2.67-2.67,4-4.67,2-12.93,10.67-14.8,15.74s-.27,12,3.73,17.33c3.34,4.4,3.47,7.47,1.07,13.87-.67,1.6.27,3.06,3.33,4.8,4,2.53,4.14,2.66,1.07,3.46a64.76,64.76,0,0,1-10.8.8c-8.67,0-12.13,1.34-14.4,5.47-2,3.73,4.4,13.87,7.87,12.53,1.2-.53,7.6-1.86,14-2.8s13.46-2.8,15.6-4c3.46-2.13,4-2.13,8.66,0,2.67,1.34,9.2,2.94,14.54,3.6S72,90,73.85,90.8c2.93,1.33,3.73.93,6.93-2.93C85.31,82.4,85.45,80.8,81.18,76.67ZM42.11,5.6c2,.27,3.07,1.33,3.07,3.07,0,2.93-4.13,4.4-6.27,2.26S38.78,5.07,42.11,5.6ZM21.18,40.93c-1.47-7.33,3.73-14.93,13.33-20,6-3.2,10.4-2.66,17.47,2h0c8.67,5.87,12,11.74,10.4,18.27-1.47,6.13-6.4,8-20.93,8C27.71,49.33,22.25,47.07,21.18,40.93Zm34,14.67c0,2.13-1.6,2.4-13.73,2.4-12.54,0-13.74-.27-13.2-2.4S30.51,53.33,42,53.33C53.71,53.33,55.18,53.6,55.18,55.6ZM30.51,62.4c5.87-1.33,24.54-.4,26.27,1.33,2.27,2.27-3.2,3.07-17.6,2.67C26.51,66,22.78,64.27,30.51,62.4ZM76.65,83.2C74.51,85.73,56,83.2,48,79.33c-6.67-3.2-6.67-3.2-10.27-.53-5.46,3.87-26.4,7.07-30.26,4.67-3.2-2,1.06-4.8,7.2-4.8,8.26,0,18-2.4,21.86-5.34C40.78,70,40.91,70,49.05,74a50.59,50.59,0,0,0,15.46,4.13C74.78,79.2,78.65,80.8,76.65,83.2Z"
         id="path8869" />
      <path
         d="M44.51,40c0-1.47.94-2.67,2-2.67s2-1.2,2-2.66S47.71,32,46.65,32s-2.14-1.33-2.4-2.93c-.4-2.94-2.54-4.4-4.14-2.94a6,6,0,0,0-.93,3.47,2.25,2.25,0,0,1-2,2.4c-1.07,0-2,1.2-2,2.67s.93,2.66,2,2.66,2,1.2,2,2.67a2.4,2.4,0,0,0,2.67,2.67A2.39,2.39,0,0,0,44.51,40Z"
         id="path8871" />
    </g>
  </g>
</svg>
