<?xml version="1.0" encoding="UTF-8" standalone="no"?>
<svg
   xmlns:dc="http://purl.org/dc/elements/1.1/"
   xmlns:cc="http://creativecommons.org/ns#"
   xmlns:rdf="http://www.w3.org/1999/02/22-rdf-syntax-ns#"
   xmlns:svg="http://www.w3.org/2000/svg"
   xmlns="http://www.w3.org/2000/svg"
   xmlns:sodipodi="http://sodipodi.sourceforge.net/DTD/sodipodi-0.dtd"
   xmlns:inkscape="http://www.inkscape.org/namespaces/inkscape"
   viewBox="0 0 84.47 92.44"
   version="1.1"
   id="svg9461"
   sodipodi:docname="bishop_black.svg"
   inkscape:version="0.92.4 (5da689c313, 2019-01-14)">
  <metadata
     id="metadata9467">
    <rdf:RDF>
      <cc:Work
         rdf:about="">
        <dc:format>image/svg+xml</dc:format>
        <dc:type
           rdf:resource="http://purl.org/dc/dcmitype/StillImage" />
      </cc:Work>
    </rdf:RDF>
  </metadata>
  <defs
     id="defs9465" />
  <sodipodi:namedview
     pagecolor="#ffffff"
     bordercolor="#666666"
     borderopacity="1"
     objecttolerance="10"
     gridtolerance="10"
     guidetolerance="10"
     inkscape:pageopacity="0"
     inkscape:pageshadow="2"
     inkscape:window-width="1920"
     inkscape:window-height="1051"
     id="namedview9463"
     showgrid="false"
     inkscape:zoom="7.2209951"
     inkscape:cx="35.021047"
     inkscape:cy="53.676293"
     inkscape:window-x="-9"
     inkscape:window-y="-9"
     inkscape:window-maximized="1"
     inkscape:current-layer="svg9461" />
  <rect
     style="opacity:1;fill:#ffffff;fill-opacity:1;stroke:none;stroke-width:0.37795275;stroke-linecap:round;stroke-linejoin:round;stroke-miterlimit:4;stroke-dasharray:none;stroke-opacity:0.97512434;paint-order:stroke fill markers"
     id="rect10016"
     width="9.0015297"
     height="8.5860739"
     x="38.221878"
     y="4.917439" />
  <rect
     style="opacity:1;fill:#ffffff;fill-opacity:1;stroke:none;stroke-width:0.37795275;stroke-linecap:round;stroke-linejoin:round;stroke-miterlimit:4;stroke-dasharray:none;stroke-opacity:0.97512434;paint-order:stroke fill markers"
     id="rect10012"
     width="17.864574"
     height="21.88064"
     x="33.374901"
     y="23.751408" />
  <rect
     style="opacity:1;fill:#ffffff;fill-opacity:1;stroke:none;stroke-width:0.37795275;stroke-linecap:round;stroke-linejoin:round;stroke-miterlimit:4;stroke-dasharray:none;stroke-opacity:0.97512434;paint-order:stroke fill markers"
     id="rect10014"
     width="31.574596"
     height="16.202753"
     x="26.312162"
     y="48.540237" />
  <g
     id="Warstwa_2"
     data-name="Warstwa 2">
    <g
       id="Warstwa_1-2"
       data-name="Warstwa 1">
      <path
         d="M73.38,74.06c-7.73.26-16.4-.94-16.4-2.4,0-.67.8-1.2,1.87-1.2,3.6,0,4.8-3.2,3.33-8.94-1.33-4.8-1.07-6,1.87-10.53,1.86-2.93,3.86-6.8,4.26-8.67,2.14-8.66-5.2-20.66-14.93-24.8-3.87-1.46-4.27-2.13-3.07-4.4C52.58,9,51.78,5.52,48.18,2.59c-3.87-3.07-6.4-3.33-10.93-1.2h0c-3.74,1.87-5.07,6.8-3.07,11.2,1.33,2.93,1.07,3.47-1.87,4.53-6,2.27-13.86,10.67-15.46,16.27-1.74,6.53-.8,10.67,3.73,17.73,3.07,4.67,3.33,5.74,2,10.54-1.47,5.73-.4,8.8,3.2,8.8,1.07,0,1.87.53,1.87,1.2,0,1.46-8.67,2.66-16.4,2.4C5.11,73.92-1.15,79.12.18,83.52c1.47,4.67,7.33,10,9.2,8.54.93-.8,6.67-2.14,12.8-2.8,6.53-.8,13.07-2.54,15.73-4.14,4.4-2.53,4.4-2.53,8.8,0,2.4,1.47,9.2,3.07,15.47,3.87s12,2.13,12.93,2.93c1.34,1.07,2.54.54,5.07-2.13,5.2-5.6,5.6-8.53,1.6-12.4C79.25,74.72,77.11,73.92,73.38,74.06ZM42.31,6.46A2.39,2.39,0,0,1,45,9.12a2.39,2.39,0,0,1-2.67,2.67,2.39,2.39,0,0,1-2.66-2.67A2.39,2.39,0,0,1,42.31,6.46ZM37.65,31.79c1.06,0,2-1.2,2-2.67a2.39,2.39,0,0,1,2.66-2.66A2.39,2.39,0,0,1,45,29.12c0,1.47.93,2.67,2,2.67s2,1.2,2,2.67-.93,2.66-2,2.66-2,1.2-2,3.34c0,2.4-.67,3.33-2.67,3.33s-2.66-.93-2.66-3.33c0-2.14-.8-3.34-2-3.34s-2-1.2-2-2.66S36.58,31.79,37.65,31.79Zm17.2,19.87c1.2,1.86-2.8,2.8-12.54,2.8-9.46,0-13.33-.8-13.33-2.8C29,50.06,53.91,50.06,54.85,51.66ZM41,62.46c-9.73,0-13.2-1.07-11.07-3.2,1.34-1.2,24.14-.94,24.94.4h0C56.18,61.66,52.05,62.46,41,62.46Z"
         id="path9457" />
    </g>
  </g>
</svg>
