<?xml version="1.0" encoding="UTF-8" standalone="no"?>
<svg
   xmlns:dc="http://purl.org/dc/elements/1.1/"
   xmlns:cc="http://creativecommons.org/ns#"
   xmlns:rdf="http://www.w3.org/1999/02/22-rdf-syntax-ns#"
   xmlns:svg="http://www.w3.org/2000/svg"
   xmlns="http://www.w3.org/2000/svg"
   xmlns:sodipodi="http://sodipodi.sourceforge.net/DTD/sodipodi-0.dtd"
   xmlns:inkscape="http://www.inkscape.org/namespaces/inkscape"
   viewBox="0 0 80.22 87.97"
   version="1.1"
   id="svg10073"
   sodipodi:docname="king_white.svg"
   inkscape:version="0.92.4 (5da689c313, 2019-01-14)">
  <metadata
     id="metadata10079">
    <rdf:RDF>
      <cc:Work
         rdf:about="">
        <dc:format>image/svg+xml</dc:format>
        <dc:type
           rdf:resource="http://purl.org/dc/dcmitype/StillImage" />
      </cc:Work>
    </rdf:RDF>
  </metadata>
  <defs
     id="defs10077" />
  <sodipodi:namedview
     pagecolor="#ffffff"
     bordercolor="#666666"
     borderopacity="1"
     objecttolerance="10"
     gridtolerance="10"
     guidetolerance="10"
     inkscape:pageopacity="0"
     inkscape:pageshadow="2"
     inkscape:window-width="1920"
     inkscape:window-height="1051"
     id="namedview10075"
     showgrid="false"
     inkscape:zoom="7.587914"
     inkscape:cx="39.564723"
     inkscape:cy="42.011548"
     inkscape:window-x="-9"
     inkscape:window-y="-9"
     inkscape:window-maximized="1"
     inkscape:current-layer="svg10073" />
  <ellipse
     style="opacity:1;fill:#ffffff;fill-opacity:1;stroke:none;stroke-width:0.3276419;stroke-linecap:round;stroke-linejoin:round;stroke-miterlimit:4;stroke-dasharray:none;stroke-opacity:0.97512434;paint-order:stroke fill markers"
     id="path10624"
     cx="-9.3337107"
     cy="49.983383"
     rx="14.998553"
     ry="19.14922"
     transform="matrix(0.86491395,-0.50192017,0.58732932,0.80934805,0,0)" />
  <ellipse
     style="opacity:1;fill:#ffffff;fill-opacity:1;stroke:none;stroke-width:0.41806588;stroke-linecap:round;stroke-linejoin:round;stroke-miterlimit:4;stroke-dasharray:none;stroke-opacity:0.97512434;paint-order:stroke fill markers"
     id="path10626"
     cx="40.590866"
     cy="31.366829"
     rx="6.853003"
     ry="11.13613" />
  <ellipse
     style="opacity:1;fill:#ffffff;fill-opacity:1;stroke:none;stroke-width:0.32660836;stroke-linecap:round;stroke-linejoin:round;stroke-miterlimit:4;stroke-dasharray:none;stroke-opacity:0.97512434;paint-order:stroke fill markers"
     id="path10624-1"
     cx="73.253792"
     cy="-26.610395"
     rx="14.987731"
     ry="19.042339"
     transform="matrix(0.52567644,0.85068459,-0.78401451,0.62074249,0,0)" />
  <path
     style="opacity:1;fill:#ffffff;fill-opacity:1;stroke:none;stroke-width:0.37795275;stroke-linecap:round;stroke-linejoin:round;stroke-miterlimit:4;stroke-dasharray:none;stroke-opacity:0.97512434;paint-order:stroke fill markers"
     d="M 12.915276,60.030834 H 67.08036 l -4.876175,23.062993 c -15.540482,4.048194 -30.652988,1.248789 -45.862407,0 z"
     id="rect10645"
     inkscape:connector-curvature="0"
     sodipodi:nodetypes="ccccc" />
  <g
     id="Warstwa_2"
     data-name="Warstwa 2">
    <g
       id="Warstwa_1-2"
       data-name="Warstwa 1">
      <path
         d="M29.41,27.33v3.2l-6-2.66c-4.94-2.27-6.8-2.4-11.2-1.2C.74,29.73-3.66,42.53,3.41,52.13c4.8,6.54,8.66,14.67,8.66,18.54a43.59,43.59,0,0,0,1.34,8.26c1.33,4.54,2.13,5.2,8.26,7.07,14.14,4.13,42.54,1.33,44.27-4.4.4-1.2,1.2-5.73,2-10,1.47-8.27,2.67-10.93,8.4-18.8,11.6-16.13-4.8-33.2-22.8-23.6-2.53,1.47-2.8,1.2-2.8-1.73,0-1.74-1.47-5.07-3.33-7.2-4-4.8-4.14-7.07-.67-9.34s3.47-5.6,0-5.6a5.36,5.36,0,0,1-4-2.66C41.94,1.2,40.47,0,39.54,0S37.41,1.2,37,2.67h0a3.56,3.56,0,0,1-3.47,2.66c-3.6,0-3.6,3.47-.13,5.6s3.33,4.54-.67,9.34C30.87,22.4,29.41,25.6,29.41,27.33Zm11.33,55.2c-14.27,0-22.4-1.33-18-2.93l4-1.47c3.07-1.06,28.4-.26,30.53,1.07h0C60.87,81.47,55.41,82.67,40.74,82.53ZM63.27,69.07c-.53,2.8-.93,5.06-1.06,5.2a42.25,42.25,0,0,1-6.14-1.07c-6.13-1.47-32.26-.93-36.13.67-1.73.8-2.4-.14-2.93-4-.54-2.8-.67-5.34-.27-5.6s4.93-.94,10.27-1.6a145.22,145.22,0,0,1,32.13.8C64.07,64.27,64.07,64.27,63.27,69.07Zm9.2-34.67c4,4,3.47,11.2-1.2,17.87L67.14,58l-9.2-.4C41,56.93,40.21,56.13,46.21,44.27,52.21,32.13,65.27,27.2,72.47,34.4ZM40.07,21.33a5.94,5.94,0,0,1,3.74,1.6c3.33,3.34.26,18.4-3.74,18.4-2.13,0-5.33-7.6-5.33-12.4S36.74,21.33,40.07,21.33ZM25.54,57.73c-12.93,1.07-14.13.54-18.8-9.06-2.53-5.34-2.67-6.14-.8-10.54,3.33-7.86,10-9.33,18.93-4.13,4.14,2.4,6.67,5.2,9.2,10.53C39.41,55.47,38.87,56.53,25.54,57.73Z"
         id="path10069" />
    </g>
  </g>
</svg>
