<?xml version="1.0" encoding="UTF-8" standalone="no"?>
<svg
   xmlns:dc="http://purl.org/dc/elements/1.1/"
   xmlns:cc="http://creativecommons.org/ns#"
   xmlns:rdf="http://www.w3.org/1999/02/22-rdf-syntax-ns#"
   xmlns:svg="http://www.w3.org/2000/svg"
   xmlns="http://www.w3.org/2000/svg"
   xmlns:sodipodi="http://sodipodi.sourceforge.net/DTD/sodipodi-0.dtd"
   xmlns:inkscape="http://www.inkscape.org/namespaces/inkscape"
   viewBox="0 0 80.54 87.76"
   version="1.1"
   id="svg10682"
   sodipodi:docname="king_black.svg"
   inkscape:version="0.92.4 (5da689c313, 2019-01-14)">
  <metadata
     id="metadata10688">
    <rdf:RDF>
      <cc:Work
         rdf:about="">
        <dc:format>image/svg+xml</dc:format>
        <dc:type
           rdf:resource="http://purl.org/dc/dcmitype/StillImage" />
      </cc:Work>
    </rdf:RDF>
  </metadata>
  <defs
     id="defs10686" />
  <sodipodi:namedview
     pagecolor="#ffffff"
     bordercolor="#666666"
     borderopacity="1"
     objecttolerance="10"
     gridtolerance="10"
     guidetolerance="10"
     inkscape:pageopacity="0"
     inkscape:pageshadow="2"
     inkscape:window-width="1920"
     inkscape:window-height="1051"
     id="namedview10684"
     showgrid="false"
     inkscape:zoom="7.6060709"
     inkscape:cx="29.485914"
     inkscape:cy="51.565306"
     inkscape:window-x="-9"
     inkscape:window-y="-9"
     inkscape:window-maximized="1"
     inkscape:current-layer="svg10682" />
  <ellipse
     style="opacity:1;fill:#ffffff;fill-opacity:1;stroke:none;stroke-width:0.41343284;stroke-linecap:round;stroke-linejoin:round;stroke-miterlimit:4;stroke-dasharray:none;stroke-opacity:0.97512434;paint-order:stroke fill markers"
     id="path11233"
     cx="-18.82719"
     cy="49.690926"
     rx="16.039818"
     ry="21.561724"
     transform="rotate(-45.000849)" />
  <ellipse
     style="opacity:1;fill:#ffffff;fill-opacity:1;stroke:none;stroke-width:0.4419001;stroke-linecap:round;stroke-linejoin:round;stroke-miterlimit:4;stroke-dasharray:none;stroke-opacity:0.97512434;paint-order:stroke fill markers"
     id="path11233-5"
     cx="72.9692"
     cy="-10.176763"
     rx="17.052107"
     ry="23.170912"
     transform="matrix(0.66520164,0.74666376,-0.78556945,0.6187735,0,0)" />
  <rect
     style="opacity:1;fill:#ffffff;fill-opacity:1;stroke:none;stroke-width:0.37795275;stroke-linecap:round;stroke-linejoin:round;stroke-miterlimit:4;stroke-dasharray:none;stroke-opacity:0.97512434;paint-order:stroke fill markers"
     id="rect11250"
     width="46.804718"
     height="12.621497"
     x="16.828663"
     y="68.170387" />
  <g
     id="Warstwa_2"
     data-name="Warstwa 2">
    <g
       id="Warstwa_1-2"
       data-name="Warstwa 1">
      <path
         d="M5.56,55.33a42.05,42.05,0,0,1,7.06,18.14l1.6,9.86,6.67,2.4c8.93,3.07,35.07,2.54,41.6-.8,4.4-2.26,4.53-2.66,6.27-16.13.4-2.93,2.8-8.4,5.46-12.27,8.27-11.86,8.4-19.86.54-26.4C70,26,61.16,25.47,54.89,28.67c-3.87,2-4,2-4-1.2,0-1.74-1.47-5.07-3.33-7.2-4-4.8-4.14-6.4-.67-8.27s3.6-6.67.27-6.67a5.85,5.85,0,0,1-4-2.66C42.22,1.2,41,0,40.22,0s-1.86,1.2-2.66,2.67h0a5.36,5.36,0,0,1-4,2.66c-3.47,0-3.47,2.94,0,6s3.33,4.14-.67,8.94c-1.87,2.13-3.33,5.46-3.33,7.2,0,3.2-.14,3.2-4,1.2a27.32,27.32,0,0,0-10.14-2c-5.2,0-6.8.66-10.66,4.53C-1.78,37.73-1.64,44.4,5.56,55.33Zm54.66,20.8c-.4.14-9.2.4-19.73.54-22.13.26-26-1.07-10.93-3.87,5.2-.93,26.66.4,29.06,1.87C59.82,75.33,60.62,76,60.22,76.13ZM9,33.47c4.54-3.6,9.2-3.47,15.74.26A23.58,23.58,0,0,1,36.22,51.2c1.07,8.53,7.87,8.13,8-.4,0-5.73,6.14-14.27,12.4-17.33,7.2-3.47,10.27-3.47,14.8,0,4.8,3.86,4.67,10.66-.4,18.8-2.13,3.46-5.06,6.8-6.4,7.46s-12.26,1.34-24.4,1.34-23.06-.54-24.4-1.34-4.26-4-6.4-7.46C4.36,44.13,4.22,37.33,9,33.47Z"
         id="path10674" />
      <path
         d="M66.76,52.67c7.06-8,7.33-14.8.66-17.47C64,33.73,62.62,33.87,58,36c-5.87,2.53-11.07,10.93-11.07,17.73C46.89,60.93,60.09,60.27,66.76,52.67Z"
         id="path10676" />
      <path
         d="M33.56,53.87c0-12.4-13.74-23.07-22.94-17.74-4.4,2.54-2.53,11.34,3.6,17.47C20.76,60.13,33.56,60.4,33.56,53.87Z"
         id="path10678" />
    </g>
  </g>
</svg>
