<?xml version="1.0" encoding="UTF-8" standalone="no"?>
<svg
   xmlns:dc="http://purl.org/dc/elements/1.1/"
   xmlns:cc="http://creativecommons.org/ns#"
   xmlns:rdf="http://www.w3.org/1999/02/22-rdf-syntax-ns#"
   xmlns:svg="http://www.w3.org/2000/svg"
   xmlns="http://www.w3.org/2000/svg"
   xmlns:sodipodi="http://sodipodi.sourceforge.net/DTD/sodipodi-0.dtd"
   xmlns:inkscape="http://www.inkscape.org/namespaces/inkscape"
   viewBox="0 0 79.67 78.67"
   version="1.1"
   id="svg6536"
   sodipodi:docname="knight_white.svg"
   inkscape:version="0.92.4 (5da689c313, 2019-01-14)">
  <metadata
     id="metadata6542">
    <rdf:RDF>
      <cc:Work
         rdf:about="">
        <dc:format>image/svg+xml</dc:format>
        <dc:type
           rdf:resource="http://purl.org/dc/dcmitype/StillImage" />
      </cc:Work>
    </rdf:RDF>
  </metadata>
  <defs
     id="defs6540" />
  <sodipodi:namedview
     pagecolor="#ffffff"
     bordercolor="#666666"
     borderopacity="1"
     objecttolerance="10"
     gridtolerance="10"
     guidetolerance="10"
     inkscape:pageopacity="0"
     inkscape:pageshadow="2"
     inkscape:window-width="1920"
     inkscape:window-height="1051"
     id="namedview6538"
     showgrid="false"
     inkscape:zoom="8.484922"
     inkscape:cx="35.965225"
     inkscape:cy="39.668347"
     inkscape:window-x="-9"
     inkscape:window-y="-9"
     inkscape:window-maximized="1"
     inkscape:current-layer="svg6536" />
  <path
     style="opacity:1;fill:#ffffff;fill-opacity:1;stroke:none;stroke-width:0.37239793;stroke-linecap:round;stroke-linejoin:round;stroke-miterlimit:4;stroke-dasharray:none;stroke-opacity:0.97512434;paint-order:stroke fill markers"
     d="M 17.089138,16.206254 C 36.926533,-0.4527445 36.057663,6.5083844 48.321015,14.556268 58.307708,18.034876 63.806119,24.7194 69.520325,31.249783 L 78.138614,77.727145 25.687741,75.160461 C 31.889261,64.727281 36.799704,54.787925 39.639361,43.743496 29.878362,44.973568 23.588826,56.279568 18.296743,59.935631 13.745653,63.079775 3.27,57.47 1.767842,53.095216 Z"
     id="rect7089"
     inkscape:connector-curvature="0"
     sodipodi:nodetypes="ccccccscc" />
  <rect
     style="opacity:1;fill:#ffffff;fill-opacity:1;stroke:none;stroke-width:0.37795275;stroke-linecap:round;stroke-linejoin:round;stroke-miterlimit:4;stroke-dasharray:none;stroke-opacity:0.97512434;paint-order:stroke fill markers"
     id="rect7087"
     width="6.3642306"
     height="5.657094"
     x="19.44626"
     y="5.7170591" />
  <g
     id="Warstwa_2"
     data-name="Warstwa 2">
    <g
       id="Warstwa_1-2"
       data-name="Warstwa 1">
      <path
         d="M3.27,57.47c2.4,2.53,5.07,3.86,6.4,3.6a4.1,4.1,0,0,1,4,1.2c2.93,3.06,5.33,2,9.73-4.4,3.6-5.34,10.67-11.2,13.47-11.2,1.6,0-1.47,6.8-5.47,11.86-4.8,6.14-6.93,10.27-8.26,15.74l-.94,4.4H79.67l-.8-14.4c-.4-8.54-1.87-17.74-3.47-22.94-5.06-16.26-16-28.4-26.93-30.13-3.6-.67-5.33-1.73-6-3.73C41.4,3.87,37.94,0,35.94,0,35,0,33.4,1.33,32.34,2.93h0c-1.87,2.8-2,2.8-7.47.67C16.2.13,15.54.4,15.67,7.6c.13,4.93-1.6,10.13-7.33,23.07C-1.8,53.47-1.66,52.53,3.27,57.47ZM23.8,7.87c.4.66-.13,1.46-1.2,2s-2,0-2-1.2C20.6,6.53,22.74,6,23.8,7.87ZM12.74,31.47C21,14.8,21,14.8,27.4,12.67c3.47-1.2,6.67-3.07,7.07-4.14C35.54,5.6,37.4,7.33,38.34,12h0c.8,3.6,1.33,4,5.86,4,9.34,0,17.07,7.07,23.74,21.47,3.73,8.13,6.93,26.8,5.46,32.4l-.8,3.46H51.27c-16.27,0-21.33-.4-21.33-1.73,0-.93,2.13-4.8,4.66-8.67,5.74-8.4,7.2-12.13,8.8-21.6.67-4,1.6-8.93,2-11.06s.27-3.6-.66-3.6c-1.6,0-6.8,9.46-6.8,12.4,0,.93-2,2.8-4.54,3.86s-7.06,5.2-10.26,8.94c-5.87,6.8-8.4,8.53-7.07,4.8.93-2.4,0-2.54-3.6-.67A5.26,5.26,0,0,1,4.6,51.33C4.6,49.6,8.34,40.67,12.74,31.47Z"
         id="path6528" />
      <path
         d="M19.14,30.67c3.86,0,8.66-4.54,7.73-7.07-1.07-2.93-2.53-2.8-6.8.53C16.07,27.33,15.54,30.67,19.14,30.67Z"
         id="path6530" />
      <path
         d="M7.8,53.33c2.14,0,4-4,2.54-5.33a3.08,3.08,0,0,0-2.67-.4C5.27,48.4,5.54,53.33,7.8,53.33Z"
         id="path6532" />
    </g>
  </g>
</svg>
