<?xml version="1.0" encoding="UTF-8" standalone="no"?>
<svg
   xmlns:dc="http://purl.org/dc/elements/1.1/"
   xmlns:cc="http://creativecommons.org/ns#"
   xmlns:rdf="http://www.w3.org/1999/02/22-rdf-syntax-ns#"
   xmlns:svg="http://www.w3.org/2000/svg"
   xmlns="http://www.w3.org/2000/svg"
   xmlns:sodipodi="http://sodipodi.sourceforge.net/DTD/sodipodi-0.dtd"
   xmlns:inkscape="http://www.inkscape.org/namespaces/inkscape"
   viewBox="0 0 79.4 77.56"
   version="1.1"
   id="svg7108"
   sodipodi:docname="knight_black.svg"
   inkscape:version="0.92.4 (5da689c313, 2019-01-14)">
  <metadata
     id="metadata7114">
    <rdf:RDF>
      <cc:Work
         rdf:about="">
        <dc:format>image/svg+xml</dc:format>
        <dc:type
           rdf:resource="http://purl.org/dc/dcmitype/StillImage" />
      </cc:Work>
    </rdf:RDF>
  </metadata>
  <defs
     id="defs7112" />
  <sodipodi:namedview
     pagecolor="#ffffff"
     bordercolor="#666666"
     borderopacity="1"
     objecttolerance="10"
     gridtolerance="10"
     guidetolerance="10"
     inkscape:pageopacity="0"
     inkscape:pageshadow="2"
     inkscape:window-width="1920"
     inkscape:window-height="1051"
     id="namedview7110"
     showgrid="false"
     inkscape:zoom="6.0856113"
     inkscape:cx="9.9806605"
     inkscape:cy="49.814792"
     inkscape:window-x="-9"
     inkscape:window-y="-9"
     inkscape:window-maximized="1"
     inkscape:current-layer="svg7108" />
  <path
     transform="matrix(0.84454124,-0.53549052,0.48747712,0.87313576,0,0)"
     style="opacity:1;fill:#ffffff;fill-opacity:1;stroke:none;stroke-width:0.43928215;stroke-linecap:round;stroke-linejoin:round;stroke-miterlimit:4;stroke-dasharray:none;stroke-opacity:0.97512434;paint-order:stroke fill markers"
     d="m 24.198961,34.762829 10.346188,0 7.753705,26.582932 -7.753705,37.405273 -10.346188,0 z"
     id="rect7663"
     inkscape:connector-curvature="0"
     sodipodi:nodetypes="cccccc" />
  <rect
     style="opacity:1;fill:#ffffff;fill-opacity:1;stroke:none;stroke-width:0.37795275;stroke-linecap:round;stroke-linejoin:round;stroke-miterlimit:4;stroke-dasharray:none;stroke-opacity:0.97512434;paint-order:stroke fill markers"
     id="rect7659"
     width="13.310084"
     height="13.310084"
     x="15.774915"
     y="18.239746" />
  <rect
     style="opacity:1;fill:#ffffff;fill-opacity:1;stroke:none;stroke-width:0.37795275;stroke-linecap:round;stroke-linejoin:round;stroke-miterlimit:4;stroke-dasharray:none;stroke-opacity:0.97512434;paint-order:stroke fill markers"
     id="rect7661"
     width="5.9155931"
     height="5.9155931"
     x="2.3005083"
     y="47.489067" />
  <g
     id="Warstwa_2"
     data-name="Warstwa 2">
    <g
       id="Warstwa_1-2"
       data-name="Warstwa 1">
      <path
         d="M12.2,60.49c1.73,0,3.2.53,3.2,1.2s1.06,1.2,2.4,1.2,3.86-2.67,6-6C27,51.82,34.46,45.56,37.13,45.56c1.73,0-1.87,6.93-6.93,13.73-2.8,3.73-5.47,8.13-5.87,9.6s-1.07,4-1.6,5.6l-.8,3.07H79.4V66.49c-.14-20.8-5.6-37.2-16.14-47.73-5.46-5.47-12.4-9.2-17.06-9.2-1.6,0-3.07-1.47-3.87-3.87-2-5.6-5.73-7.33-9.07-4C31.13,3.82,29.93,4.09,26.73,3c-2.27-.66-5.6-1.6-7.6-2C15.4.22,15.4.22,15.4,6.76c0,5.2-1.74,10.53-8.14,25.06C.6,46.76-.74,50.76.33,53.56,1.53,57.16,7.26,60.49,12.2,60.49ZM50.06,18.22c4.54,2.4,11.87,11.2,15.87,18.94,5.73,11.6,9.07,33.73,4.8,33.73-1.87,0-2.27-1.47-4-14.27a50.48,50.48,0,0,0-13.47-28.4c-4.13-4.26-8.53-8.26-10-8.66s-2.53-1.47-2.53-2.14C40.73,15.56,45.66,16,50.06,18.22ZM18.33,23.16c2.27-2.27,7.73-2,7.73.26s-4.93,6.14-7.6,6.14C16.33,29.56,16.2,25.29,18.33,23.16Zm-14,26c1.47-1.6,3.07-1.07,3.07.93a3.39,3.39,0,0,1-2,2.67C3.4,53.42,2.6,50.89,4.33,49.16Z"
         id="path7104" />
    </g>
  </g>
</svg>
