<svg xmlns="http://www.w3.org/2000/svg" viewBox="0 0 58.36 78.07"><g id="Warstwa_2" data-name="Warstwa 2"><g id="Warstwa_1-2" data-name="Warstwa 1"><path d="M28.8,78.07c23.47,0,28.8-.4,29.33-1.86.4-1.07.27-5.6-.4-10.14C56.4,56.74,52,48.87,45.87,45.27L42,43l2.8-3.87a15.54,15.54,0,0,0,2.93-9.33c0-4.4-.8-6-4.4-9.2s-4-4.27-2.93-7.2A10.45,10.45,0,0,0,37.47,2.34C34.67.07,28.27-.73,24.8.74h0A10.66,10.66,0,0,0,18.53,13c1.07,3.6.67,4.66-3.06,8.4-5.34,5.33-5.74,10.4-1.34,16.8l3.07,4.53L12,46.47C5.73,51,2.27,58.47.93,69.67L0,78.07Z"/></g></g></svg>