<?xml version="1.0" encoding="UTF-8" standalone="no"?>
<svg
   xmlns:dc="http://purl.org/dc/elements/1.1/"
   xmlns:cc="http://creativecommons.org/ns#"
   xmlns:rdf="http://www.w3.org/1999/02/22-rdf-syntax-ns#"
   xmlns:svg="http://www.w3.org/2000/svg"
   xmlns="http://www.w3.org/2000/svg"
   xmlns:sodipodi="http://sodipodi.sourceforge.net/DTD/sodipodi-0.dtd"
   xmlns:inkscape="http://www.inkscape.org/namespaces/inkscape"
   viewBox="0 0 58.75 78.13"
   version="1.1"
   id="svg5934"
   sodipodi:docname="pawn_white.svg"
   inkscape:version="0.92.4 (5da689c313, 2019-01-14)">
  <metadata
     id="metadata5940">
    <rdf:RDF>
      <cc:Work
         rdf:about="">
        <dc:format>image/svg+xml</dc:format>
        <dc:type
           rdf:resource="http://purl.org/dc/dcmitype/StillImage" />
      </cc:Work>
    </rdf:RDF>
  </metadata>
  <defs
     id="defs5938" />
  <sodipodi:namedview
     pagecolor="#ffffff"
     bordercolor="#666666"
     borderopacity="1"
     objecttolerance="10"
     gridtolerance="10"
     guidetolerance="10"
     inkscape:pageopacity="0"
     inkscape:pageshadow="2"
     inkscape:window-width="1920"
     inkscape:window-height="1051"
     id="namedview5936"
     showgrid="false"
     inkscape:zoom="8.5435662"
     inkscape:cx="22.894119"
     inkscape:cy="47.230286"
     inkscape:window-x="-9"
     inkscape:window-y="-9"
     inkscape:window-maximized="1"
     inkscape:current-layer="svg5934" />
  <path
     style="opacity:1;fill:#ffffff;fill-opacity:1;stroke:none;stroke-width:0.67556053;stroke-linecap:round;stroke-linejoin:round;stroke-miterlimit:4;stroke-dasharray:none;stroke-opacity:0.97512434;paint-order:stroke fill markers"
     d="m 21.419627,4.8584872 13.226324,-1.63866 c 1.496221,4.5031269 1.559218,10.9542698 4.421732,15.7232878 3.957875,6.593917 10.279636,11.466083 6.273214,16.961216 -2.898694,3.975793 -9.314175,7.341745 1.530367,13.028133 6.636853,3.480065 7.416048,15.822225 10.130691,25.217926 H 3.7455082 C 6.9365313,62.008183 1.927271,53.095264 11.656162,47.885228 17.850938,44.567789 18.717536,40.964633 14.593221,34.788685 9.6773253,27.427386 25.368655,14.405077 21.419627,4.8584872 Z"
     id="rect6485"
     inkscape:connector-curvature="0"
     sodipodi:nodetypes="ccsssccssc" />
  <g
     id="Warstwa_2"
     data-name="Warstwa 2">
    <g
       id="Warstwa_1-2"
       data-name="Warstwa 1">
      <path
         d="M1,65.59C-1.12,78.92-3,78.12,30,78.12h28.8l-.94-8.4c-1.2-10.66-5.2-18.93-11.33-23.33l-4.93-3.6,3.2-4.67c4-6,3.33-12.53-2.14-17.46-2.8-2.54-3.6-4.14-2.8-6,1.74-4.4,1.34-6.94-1.73-10.4C34.35.12,28.21-1.21,23.68,1.19h0C19,3.59,16.61,8.92,18.35,13.32c1.06,3.07.8,4-2.94,7.34s-4.4,4.8-4.4,9.2A15.55,15.55,0,0,0,14,39.19l2.8,3.87-3.87,2.26C7,48.79,2.48,56.66,1,65.59Zm21.6-20.8c2.27,0,.94-4.4-2.26-6.93-5.07-4-4.67-10.8,1.2-16,4.13-3.6,4.4-4.27,3.06-8.4-1.86-6.14-.53-8.67,4.4-8.67,2.54,0,4.4.8,4.94,2.13s.13,4.14-.54,6.54c-1.33,4.13-1.06,4.8,3.07,8.4,5.87,5.2,6.4,12.26,1.2,15.73-4.4,2.93-4.27,6.13.53,8.93C44,49.86,50.08,57.46,51.55,63.06c2.93,10.26,4.26,9.73-22.67,9.73H4.75l.93-5.73A34.48,34.48,0,0,1,8.48,58C10.35,54.39,20.61,44.79,22.61,44.79Z"
         id="path5930" />
    </g>
  </g>
</svg>
