<?xml version="1.0" encoding="UTF-8" standalone="no"?>
<svg
   xmlns:dc="http://purl.org/dc/elements/1.1/"
   xmlns:cc="http://creativecommons.org/ns#"
   xmlns:rdf="http://www.w3.org/1999/02/22-rdf-syntax-ns#"
   xmlns:svg="http://www.w3.org/2000/svg"
   xmlns="http://www.w3.org/2000/svg"
   xmlns:sodipodi="http://sodipodi.sourceforge.net/DTD/sodipodi-0.dtd"
   xmlns:inkscape="http://www.inkscape.org/namespaces/inkscape"
   viewBox="0 0 92.56 86.21"
   version="1.1"
   id="svg8263"
   sodipodi:docname="queen_white.svg"
   inkscape:version="0.92.4 (5da689c313, 2019-01-14)">
  <metadata
     id="metadata8269">
    <rdf:RDF>
      <cc:Work
         rdf:about="">
        <dc:format>image/svg+xml</dc:format>
        <dc:type
           rdf:resource="http://purl.org/dc/dcmitype/StillImage" />
      </cc:Work>
    </rdf:RDF>
  </metadata>
  <defs
     id="defs8267" />
  <sodipodi:namedview
     pagecolor="#ffffff"
     bordercolor="#666666"
     borderopacity="1"
     objecttolerance="10"
     gridtolerance="10"
     guidetolerance="10"
     inkscape:pageopacity="0"
     inkscape:pageshadow="2"
     inkscape:window-width="1920"
     inkscape:window-height="1051"
     id="namedview8265"
     showgrid="false"
     inkscape:zoom="7.7428234"
     inkscape:cx="49.680805"
     inkscape:cy="40.818555"
     inkscape:window-x="-9"
     inkscape:window-y="-9"
     inkscape:window-maximized="1"
     inkscape:current-layer="svg8263" />
  <rect
     style="opacity:1;fill:#ffffff;fill-opacity:1;stroke:none;stroke-width:0.37795275;stroke-linecap:round;stroke-linejoin:round;stroke-miterlimit:4;stroke-dasharray:none;stroke-opacity:0.97512434;paint-order:stroke fill markers"
     id="rect8824"
     width="46.882122"
     height="22.084967"
     x="22.989031"
     y="60.637932" />
  <rect
     style="opacity:1;fill:#ffffff;fill-opacity:1;stroke:none;stroke-width:0.37795275;stroke-linecap:round;stroke-linejoin:round;stroke-miterlimit:4;stroke-dasharray:none;stroke-opacity:0.97512434;paint-order:stroke fill markers"
     id="rect8814"
     width="8.0074148"
     height="7.3616557"
     x="3.2287962"
     y="16.080542" />
  <rect
     style="opacity:1;fill:#ffffff;fill-opacity:1;stroke:none;stroke-width:0.37795275;stroke-linecap:round;stroke-linejoin:round;stroke-miterlimit:4;stroke-dasharray:none;stroke-opacity:0.97512434;paint-order:stroke fill markers"
     id="rect8816"
     width="7.4908075"
     height="7.1033521"
     x="21.180904"
     y="7.8148236" />
  <rect
     style="opacity:1;fill:#ffffff;fill-opacity:1;stroke:none;stroke-width:0.33745119;stroke-linecap:round;stroke-linejoin:round;stroke-miterlimit:4;stroke-dasharray:none;stroke-opacity:0.97512434;paint-order:stroke fill markers"
     id="rect8818"
     width="6.6144891"
     height="7.9144683"
     x="42.979824"
     y="3.6457593" />
  <rect
     style="opacity:1;fill:#ffffff;fill-opacity:1;stroke:none;stroke-width:0.37795275;stroke-linecap:round;stroke-linejoin:round;stroke-miterlimit:4;stroke-dasharray:none;stroke-opacity:0.97512434;paint-order:stroke fill markers"
     id="rect8820"
     width="6.1992888"
     height="7.6199594"
     x="64.188469"
     y="7.6856718" />
  <rect
     style="opacity:1;fill:#ffffff;fill-opacity:1;stroke:none;stroke-width:0.37795275;stroke-linecap:round;stroke-linejoin:round;stroke-miterlimit:4;stroke-dasharray:none;stroke-opacity:0.97512434;paint-order:stroke fill markers"
     id="rect8822"
     width="6.7158966"
     height="7.4908075"
     x="81.107361"
     y="16.338846" />
  <path
     style="opacity:1;fill:#ffffff;fill-opacity:1;stroke:none;stroke-width:0.37795275;stroke-linecap:round;stroke-linejoin:round;stroke-miterlimit:4;stroke-dasharray:none;stroke-opacity:0.97512434;paint-order:stroke fill markers"
     d="m 10.332149,32.482826 c 2.310859,-0.0044 3.853971,0.78321 6.368178,1.548411 1.151794,0.350549 3.867478,5.012609 5.040746,5.433516 1.234281,0.442795 2.218456,-3.999097 3.461375,-3.543484 2.173668,0.796797 2.566632,-5.696142 3.493375,-7.12292 0.687672,-1.058714 1.843367,2.877555 3.321196,3.031175 1.048935,0.109037 5.059879,8.248556 6.09548,8.10967 0.856399,-0.114854 5.543955,-13.245345 6.305212,-13.296303 2.290156,-0.153301 3.149584,1.094679 4.454563,1.554437 1.205915,0.424857 2.56216,11.052654 4.114629,12.247919 2.387969,1.838526 4.95417,-6.322234 5.77722,-8.359696 1.215849,-3.009835 2.978759,-7.048631 4.429,-7.509768 3.007068,-0.956167 5.461413,4.935616 5.00283,7.555922 -2.490034,14.227852 5.835512,4.504602 10.789065,-0.289971 0.963011,-0.932104 3.386974,0.616871 4.188775,0.641092 l -9.04063,25.830371 -58.893244,-2.06643 z"
     id="rect8826"
     inkscape:connector-curvature="0"
     sodipodi:nodetypes="cssssssssssssscccc" />
  <g
     id="Warstwa_2"
     data-name="Warstwa 2">
    <g
       id="Warstwa_1-2"
       data-name="Warstwa 1">
      <path
         d="M80.76,14.18c-2.27,1.87-3.07,4-3.2,9.07-.27,6.4-4.8,15.2-7.87,15.2-.66,0-1.06-4-.66-9.07.26-6.8,1.2-10,3.46-12.8,3.6-4.66,3.74-6.66.27-10.13-3.07-3.07-6.53-3.33-10-.8C60.89,7,60.23,9.38,60.09,16.58a38.17,38.17,0,0,1-3.33,15.87l-3.07,6.67-1.2-4.54c-1.33-5.06-.93-22.13.8-25.73.67-1.6,0-3.33-2.4-5.73C46.76-1,45.43-1,41.43,3h0c-2.8,2.8-3.07,3.87-2,6.8,1.46,4,1.6,20.94.13,26-1.07,3.2-1.07,3.2-3.2-1.73-3.6-8.53-5.2-15.73-4.27-20.4C33.56,5.52,25.16.72,19.43,6.45c-3.47,3.47-3.34,5.47.26,10.13,2.27,2.8,3.2,6,3.47,12.8.67,10.8-.8,11.6-5.87,3.07-2.53-4.53-3.33-7.2-2.66-10.13.53-3.2,0-4.67-2.54-7.34-4-4-5.33-4-9.46.14-3.74,3.73-3.47,7.73.66,11.33C4.63,27.65,6.63,33.38,8,40.18c1.47,7.07,3.73,13.47,5.6,16s4.13,5.6,5.2,7.2c2,2.67,2,3.47-.13,10.27-1.6,4.93-1.87,8-1.07,8.8,4.13,4.13,44.93,5.2,54.4,1.47,4.13-1.6,4.27-4.4.67-13.07-1.6-4-1.47-4.53,2.8-9.87,4.93-6.26,6.93-11.06,9.46-23.73,1.2-5.47,2.94-9.73,4.8-11.6,3.87-4,3.87-6.53-.26-10.53C85.56,11.12,84.63,11,80.76,14.18ZM9.83,20.05c-.27,1.73-1.34,3.07-2.4,3.07S5.29,21.78,5,20.05c-.4-2.27.26-2.93,2.4-2.93S10.23,17.78,9.83,20.05Zm60-8.53h0c.4,2.26-.27,2.93-2.27,2.93s-2.8-.8-2.8-2.4C64.76,7,69.16,6.58,69.83,11.52Zm-21.34-4h0c.4,2.26-.26,2.93-2.26,2.93s-2.8-.8-2.8-2.4C43.43,3,47.83,2.58,48.49,7.52Zm-26.4,4.53c0-5.07,4.4-5.47,5.07-.53h0c.4,2.26-.27,2.93-2.27,2.93S22.09,13.65,22.09,12.05ZM51.16,80.72c-7.47.26-16.4.13-19.6-.54-6.27-1.2-8.67-3.73-4.53-4.8,3.73-1.06,38.66-.4,39.86.8C69.29,78.58,64.09,80.05,51.16,80.72ZM29.29,62.05c7.2-.93,25.47-.93,31.74-.13,5.46.8,5.86,1.06,5.33,4.4l-.53,3.46H26.36l-.53-3.6C25.29,63,25.69,62.58,29.29,62.05Zm16.8-5.33c-12.4,0-22.66-.54-22.66-1.2,0-4.14,28-6,40.53-2.67,2.13.67,4.13,1.73,4.4,2.4C68.63,56.18,60.89,56.72,46.09,56.72Zm32.8-15.34a39.2,39.2,0,0,1-2.13,7.87c-1.33,2.27-1.6,2.27-9.07-.4-13.06-4.67-34.4-3.73-48.53,2.27-2.67,1.06-4.4-1.74-5.73-9.74l-.94-5.73,6.4,6.4c6.4,6.27,6.4,6.27,7.34,3.07a35.48,35.48,0,0,0,1.06-8c.27-6.4,2.14-9.47,3.47-5.2A40.71,40.71,0,0,0,35,40.18c4.26,6.14,5.73,5.2,9.2-5.46l2.4-7.6,1.06,5.06a39.63,39.63,0,0,0,3.2,9.2L53,45.52l3.2-3.87a45.35,45.35,0,0,0,5.46-9.87l2.4-6L65,36.32c.53,5.73,1.2,10.8,1.6,11.06s3.33-2.13,6.8-5.46l6.26-6Zm8.27-21.33c-.27,1.73-1.33,3.07-2.4,3.07s-2.13-1.34-2.4-3.07c-.4-2.27.27-2.93,2.4-2.93S87.56,17.78,87.16,20.05Z"
         id="path8259" />
    </g>
  </g>
</svg>
