<?xml version="1.0" encoding="UTF-8" standalone="no"?>
<svg
   xmlns:dc="http://purl.org/dc/elements/1.1/"
   xmlns:cc="http://creativecommons.org/ns#"
   xmlns:rdf="http://www.w3.org/1999/02/22-rdf-syntax-ns#"
   xmlns:svg="http://www.w3.org/2000/svg"
   xmlns="http://www.w3.org/2000/svg"
   xmlns:sodipodi="http://sodipodi.sourceforge.net/DTD/sodipodi-0.dtd"
   xmlns:inkscape="http://www.inkscape.org/namespaces/inkscape"
   viewBox="0 0 92.45 86.45"
   version="1.1"
   id="svg7682"
   sodipodi:docname="queen_black.svg"
   inkscape:version="0.92.4 (5da689c313, 2019-01-14)">
  <metadata
     id="metadata7688">
    <rdf:RDF>
      <cc:Work
         rdf:about="">
        <dc:format>image/svg+xml</dc:format>
        <dc:type
           rdf:resource="http://purl.org/dc/dcmitype/StillImage" />
      </cc:Work>
    </rdf:RDF>
  </metadata>
  <defs
     id="defs7686" />
  <sodipodi:namedview
     pagecolor="#ffffff"
     bordercolor="#666666"
     borderopacity="1"
     objecttolerance="10"
     gridtolerance="10"
     guidetolerance="10"
     inkscape:pageopacity="0"
     inkscape:pageshadow="2"
     inkscape:window-width="1920"
     inkscape:window-height="1051"
     id="namedview7684"
     showgrid="false"
     inkscape:zoom="7.7213282"
     inkscape:cx="47.403678"
     inkscape:cy="58.359582"
     inkscape:window-x="-9"
     inkscape:window-y="-9"
     inkscape:window-maximized="1"
     inkscape:current-layer="svg7682" />
  <rect
     style="opacity:1;fill:#ffffff;fill-opacity:1;stroke:none;stroke-width:0.37795275;stroke-linecap:round;stroke-linejoin:round;stroke-miterlimit:4;stroke-dasharray:none;stroke-opacity:0.97512434;paint-order:stroke fill markers"
     id="rect8245"
     width="45.588013"
     height="8.4182405"
     x="23.182541"
     y="68.188889" />
  <rect
     style="opacity:1;fill:#ffffff;fill-opacity:1;stroke:none;stroke-width:0.37795275;stroke-linecap:round;stroke-linejoin:round;stroke-miterlimit:4;stroke-dasharray:none;stroke-opacity:0.97512434;paint-order:stroke fill markers"
     id="rect8243"
     width="51.545536"
     height="10.619934"
     x="20.462801"
     y="49.798271" />
  <rect
     style="opacity:1;fill:#ffffff;fill-opacity:1;stroke:none;stroke-width:0.37795275;stroke-linecap:round;stroke-linejoin:round;stroke-miterlimit:4;stroke-dasharray:none;stroke-opacity:0.97512434;paint-order:stroke fill markers"
     id="rect8233"
     width="6.8641038"
     height="8.6772633"
     x="4.2738762"
     y="15.607264" />
  <rect
     style="opacity:1;fill:#ffffff;fill-opacity:1;stroke:none;stroke-width:0.37795275;stroke-linecap:round;stroke-linejoin:round;stroke-miterlimit:4;stroke-dasharray:none;stroke-opacity:0.97512434;paint-order:stroke fill markers"
     id="rect8235"
     width="6.6050811"
     height="8.1592178"
     x="21.887426"
     y="7.707068" />
  <rect
     style="opacity:1;fill:#ffffff;fill-opacity:1;stroke:none;stroke-width:0.37795275;stroke-linecap:round;stroke-linejoin:round;stroke-miterlimit:4;stroke-dasharray:none;stroke-opacity:0.97512434;paint-order:stroke fill markers"
     id="rect8237"
     width="6.8641038"
     height="7.6411724"
     x="43.256805"
     y="4.080749" />
  <rect
     style="opacity:1;fill:#ffffff;fill-opacity:1;stroke:none;stroke-width:0.37795275;stroke-linecap:round;stroke-linejoin:round;stroke-miterlimit:4;stroke-dasharray:none;stroke-opacity:0.97512434;paint-order:stroke fill markers"
     id="rect8239"
     width="7.123127"
     height="7.3821497"
     x="64.108139"
     y="8.095602" />
  <rect
     style="opacity:1;fill:#ffffff;fill-opacity:1;stroke:none;stroke-width:0.37795275;stroke-linecap:round;stroke-linejoin:round;stroke-miterlimit:4;stroke-dasharray:none;stroke-opacity:0.97512434;paint-order:stroke fill markers"
     id="rect8241"
     width="6.9936156"
     height="7.7706838"
     x="81.462669"
     y="16.513844" />
  <g
     id="Warstwa_2"
     data-name="Warstwa 2">
    <g
       id="Warstwa_1-2"
       data-name="Warstwa 1">
      <path
         d="M85,13.12c-5.2,0-7.33,3.06-7.46,10.53a18.65,18.65,0,0,1-3.2,10.53c-4.67,6.54-5.87,5.47-5.2-4.8.26-6.8,1.2-10,3.46-12.93,6.4-8-3.2-17.2-10.53-9.87-2.13,2.14-2.53,3.74-1.87,7.6.8,5.07-3.46,22-6,23.6-2.8,1.74-3.46-23.06-.8-28.93.67-1.6,0-3.33-2.4-5.73C46.89-1,45.56-1,41.56,3h0c-2.8,2.8-3.07,3.87-2,6.8,1.46,3.87,1.6,20.27.13,26.67-.8,3.87-.93,3.73-4.13-4a44.5,44.5,0,0,1-3.47-15.33c-.27-10.54-.27-10.4-3.33-12a7.46,7.46,0,0,0-10.67,3.6c-1.07,2.93-.8,4.26,1.73,7.6,2.27,3.06,3.07,6.4,3.47,13.06.67,10.27-.67,11.34-5.2,4.8a18.57,18.57,0,0,1-3.2-10.53c-.13-7.47-2.27-10.53-7.47-10.53A7.26,7.26,0,0,0,.62,23.25c.94,1.73,2.54,3.6,3.6,4a4.37,4.37,0,0,1,2,3.73c0,1.47,1.2,7.47,2.54,13.07,1.86,7.73,3.73,11.73,7.33,16,5.47,6.4,5.47,6.4,2.67,14-1.74,4.53-1.87,6.13-.67,7.6,2.53,2.93,13.47,4.8,28.53,4.8C62.36,86.32,71,85,74,82.05c1.86-1.87,1.86-2.67-.14-7.87-2.93-7.73-2.93-7.73,2.54-14.13,3.6-4.27,5.33-8.13,7.33-16.4,1.33-5.87,2.53-11.87,2.53-13.2a3.83,3.83,0,0,1,2-3.2c1.07-.4,2.67-2.27,3.6-4A7.25,7.25,0,0,0,85,13.12ZM10,20.05c-.27,1.73-1.34,3.07-2.4,3.07s-2.14-1.34-2.4-3.07c-.4-2.27.26-2.93,2.4-2.93S10.36,17.78,10,20.05ZM67.56,9.12a2.39,2.39,0,0,1,2.66,2.66,2.67,2.67,0,1,1-5.33,0A2.39,2.39,0,0,1,67.56,9.12Zm-21.34-4a2.39,2.39,0,0,1,2.67,2.66,2.39,2.39,0,0,1-2.67,2.67,2.39,2.39,0,0,1-2.66-2.67A2.39,2.39,0,0,1,46.22,5.12Zm-24,6.66a2.39,2.39,0,0,1,2.67-2.66,2.39,2.39,0,0,1,2.67,2.66,2.4,2.4,0,0,1-2.67,2.67A2.4,2.4,0,0,1,22.22,11.78Zm24,62.27c-20.4,0-24.93-.93-18.26-3.6,3.33-1.33,34.26-1.73,37.46-.53h0a3.15,3.15,0,0,1,2.14,2.4C67.56,73.65,62.22,74.05,46.22,74.05Zm23.47-17.2c-1.2,1.07-46.27,1.2-46.93,0-1.87-2.93,12.53-5.07,29.33-4.27,7.33.4,14.4,1.34,15.87,2S70.09,56.32,69.69,56.85Zm17.6-36.8c-.27,1.73-1.33,3.07-2.4,3.07s-2.13-1.34-2.4-3.07c-.4-2.27.27-2.93,2.4-2.93S87.69,17.78,87.29,20.05Z"
         id="path7678" />
    </g>
  </g>
</svg>
