<?xml version="1.0" encoding="UTF-8" standalone="no"?>
<svg
   xmlns:dc="http://purl.org/dc/elements/1.1/"
   xmlns:cc="http://creativecommons.org/ns#"
   xmlns:rdf="http://www.w3.org/1999/02/22-rdf-syntax-ns#"
   xmlns:svg="http://www.w3.org/2000/svg"
   xmlns="http://www.w3.org/2000/svg"
   xmlns:sodipodi="http://sodipodi.sourceforge.net/DTD/sodipodi-0.dtd"
   xmlns:inkscape="http://www.inkscape.org/namespaces/inkscape"
   viewBox="0 0 66.32 78.12"
   version="1.1"
   id="svg4534"
   sodipodi:docname="rook_white.svg"
   inkscape:version="0.92.4 (5da689c313, 2019-01-14)">
  <metadata
     id="metadata4540">
    <rdf:RDF>
      <cc:Work
         rdf:about="">
        <dc:format>image/svg+xml</dc:format>
        <dc:type
           rdf:resource="http://purl.org/dc/dcmitype/StillImage" />
      </cc:Work>
    </rdf:RDF>
  </metadata>
  <defs
     id="defs4538" />
  <sodipodi:namedview
     pagecolor="#ffffff"
     bordercolor="#666666"
     borderopacity="1"
     objecttolerance="10"
     gridtolerance="10"
     guidetolerance="10"
     inkscape:pageopacity="0"
     inkscape:pageshadow="2"
     inkscape:window-width="1920"
     inkscape:window-height="1051"
     id="namedview4536"
     showgrid="true"
     inkscape:zoom="10.983103"
     inkscape:cx="29.07416"
     inkscape:cy="38.61818"
     inkscape:window-x="-9"
     inkscape:window-y="-9"
     inkscape:window-maximized="1"
     inkscape:current-layer="svg4534">
    <inkscape:grid
       type="xygrid"
       id="grid4542" />
  </sodipodi:namedview>
  <path
     style="opacity:1;fill:#ffffff;fill-opacity:1;stroke:none;stroke-width:0.04018702;stroke-linecap:round;stroke-linejoin:round;stroke-miterlimit:4;stroke-dasharray:none;stroke-opacity:0.97512434;paint-order:stroke fill markers"
     d="M 15.868663,40.102155 V 26.120003 H 32.934332 50 V 40.102155 54.084307 H 32.934332 15.868663 Z"
     id="path5325"
     inkscape:connector-curvature="0" />
  <path
     style="opacity:1;fill:#ffffff;fill-opacity:1;stroke:none;stroke-width:0.03904057;stroke-linecap:round;stroke-linejoin:round;stroke-miterlimit:4;stroke-dasharray:none;stroke-opacity:0.97512434;paint-order:stroke fill markers"
     d="m 13.667421,63.042597 c -3.607791,-0.01758 -5.6513136,-0.06404 -5.6295686,-0.127977 0.067571,-0.198657 5.3188646,-5.627397 6.0376846,-6.241697 1.843591,-1.575526 3.323732,-2.049581 7.269838,-2.328367 1.839222,-0.129938 21.714948,-0.135022 24.63582,-0.0064 1.136242,0.05008 2.507481,0.16811 3.047197,0.262302 1.353034,0.236138 2.79013,0.72708 3.532106,1.206642 0.618377,0.399677 5.007653,4.65359 6.612966,6.409027 L 60,63.120003 39.665563,63.095078 C 28.481622,63.081373 16.782459,63.05773 13.667421,63.042539 Z"
     id="path5321"
     inkscape:connector-curvature="0" />
  <path
     style="opacity:1;fill:#ffffff;fill-opacity:1;stroke:none;stroke-width:0.03914621;stroke-linecap:round;stroke-linejoin:round;stroke-miterlimit:4;stroke-dasharray:none;stroke-opacity:0.97512434;paint-order:stroke fill markers"
     d="M 14,74.120003 C 7.5343489,73.9685 4.7586907,73.606324 3.7884864,72.787573 3.3718632,72.435988 3.1710872,71.721244 3.217209,70.753883 c 0.060354,-1.265877 0.4918265,-1.759761 1.866869,-2.136911 2.0968591,-0.575131 3.819835,-0.660048 16.603043,-0.818287 8.544554,-0.105774 13.423486,-0.106473 21.739703,-0.0031 10.783523,0.134 12.642396,0.200267 14.898688,0.531132 2.614792,0.383435 3.292524,0.939115 3.292524,2.699565 0,1.365792 -0.384088,1.881289 -1.712537,2.298452 -1.490709,0.468115 -3.778497,0.656921 -9.715087,0.801763 C 45.16431,74.249127 19.312064,74.244508 14,74.120061 Z"
     id="path5329"
     inkscape:connector-curvature="0" />
  <path
     style="opacity:1;fill:#ffffff;fill-opacity:1;stroke:none;stroke-width:0.38245386;stroke-linecap:round;stroke-linejoin:round;stroke-miterlimit:4;stroke-dasharray:none;stroke-opacity:0.97512434;paint-order:stroke fill markers"
     d="M 5,4.6647582 H 18.391889 C 20.199858,5.1058811 22.329211,8.1687877 24,5.1200027 L 41.520396,4.8984454 c 1.266787,1.486803 3.1083,1.7921587 6.007119,-0.075964 L 60,4.6647582 c 0.324087,5.7996528 0.563907,11.5725488 -2,16.4552448 -12,3 1,7 -49,1 C 5.6615227,16.124826 5.2188225,10.384924 5,4.6647582 Z"
     id="rect5331"
     inkscape:connector-curvature="0"
     sodipodi:nodetypes="ccccccccc" />
  <g
     id="Warstwa_2"
     data-name="Warstwa 2"
     style="fill:#000000;fill-opacity:1"
     inkscape:export-xdpi="96"
     inkscape:export-ydpi="96">
    <g
       id="Warstwa_1-2"
       data-name="Warstwa 1"
       style="fill:#000000;fill-opacity:1">
      <path
         d="M6.49,60.79c-6.13,6.13-6.8,7.2-6.4,12l.4,5.33H65.83l.4-5.33c.4-4.8-.27-5.87-6.4-12l-6.67-6.54V26.79l6-5.47c5.33-4.93,6-6.27,6-11.2,0-7.2-2.93-10-10.4-10-4.13,0-6,.67-7.2,2.67-.93,1.46-2.4,2.66-3.2,2.66s-1.87-1.2-2.27-2.66C41.56.52,40.23.12,33.16.12s-8.4.4-8.93,2.67c-.4,1.46-1.34,2.66-2.27,2.66s-2.27-1.2-3.2-2.66C16.49-.81,6.49-.95,3.43,2.52h0C2.09,4,1.16,7.19,1.16,10.39c0,4.66.8,6.13,6,10.93l6,5.47V54.25Zm54.67,10c0,2.53-.93,2.66-28,2.66s-28-.13-28-2.66.93-2.67,28-2.67S61.16,68.25,61.16,70.79ZM11,19.05c-3.34-2.66-4.54-4.66-4.54-7.73,0-5.07.8-5.87,5.47-5.87,2.8,0,3.73.67,4.13,2.94h0a4.08,4.08,0,0,0,2.8,3.46c4,.8,8.94-.93,8.94-3.06,0-1.47,1.46-2,5.33-2s5.33.53,5.33,2c0,2.13,4.94,3.86,8.94,3.06,1.33-.26,2.53-1.86,2.8-3.46.4-2.54,1.2-3.07,4.66-2.67,3.74.4,4.27.93,4.67,4.93.4,3.6-.27,5.07-4,8.27-4.4,3.73-4.67,3.73-22.13,3.87S15.56,22.65,11,19.05Zm36.8,7.74v24H18.49v-24Zm-34,32c3.86-4,3.86-4,19.33-4s15.47,0,19.33,4l3.87,4H10Z"
         id="path4530"
         style="fill:#000000;fill-opacity:1" />
    </g>
  </g>
</svg>
